# Noesis .obj export.
#
mtllib unused.mtl
g
v  0.446111 -0.004066 -0.939575
v  0.446111 0.102264 -1.157877
v  0.918319 -0.004066 -0.939575
v  0.446111 0.007102 -1.635406
v  0.446111 -0.178963 -1.713371
v  0.903620 0.007102 -1.635406
v  0.435359 -0.423082 -0.863325
v  0.910266 -0.198010 -0.860784
v  0.902982 -0.423081 -0.863325
v  0.446111 -0.198010 -0.860784
v  0.435359 -0.423082 -0.863325
v  0.919904 0.035435 -1.020673
v  0.921980 0.102264 -1.157877
v  0.919904 0.035435 -1.020673
v  0.921980 0.102264 -1.157877
v  0.921399 0.103195 -1.282492
v  0.446111 0.104211 -1.418332
v  0.922960 0.103535 -1.327989
v  0.918383 0.104211 -1.418332
v  0.923533 0.103536 -1.328067
v  0.899004 -0.088197 -1.675338
v  0.888362 -0.178963 -1.713371
v  0.899004 -0.088197 -1.675338
v  0.429983 -0.393244 -1.332302
v  0.429983 -0.393244 -1.332302
v  0.429983 -0.321475 -1.710987
v  0.885153 -0.319919 -1.714602
v  0.884894 -0.278614 -1.714241
v  0.429983 -0.321475 -1.710987
v  0.885153 -0.319919 -1.714602
v  0.435359 -0.423082 -0.863325
v  0.429983 -0.423559 -1.019499
v  0.429983 -0.393244 -1.332302
v  0.429983 -0.393244 -1.332302
v  0.435359 -0.423082 -0.863325
v  0.429983 -0.393244 -1.332302
v  0.429983 -0.393244 -1.332302
v  0.885153 -0.319919 -1.714602
v  -0.539389 0.009330 1.639050
v  -0.855360 0.009330 1.639050
v  -0.539389 0.121281 1.432336
v  -0.539389 0.116785 1.137780
v  -0.922557 0.116785 1.137780
v  -0.539389 0.001180 0.927341
v  -0.446111 -0.004066 -0.939575
v  -0.918319 -0.004066 -0.939575
v  -0.446111 0.102264 -1.157877
v  -0.446111 0.007102 -1.635406
v  -0.903620 0.007102 -1.635406
v  -0.446111 -0.178963 -1.713371
v  -0.446111 -0.422410 -0.862893
v  -0.900897 -0.422410 -0.862893
v  -0.910266 -0.198010 -0.860784
v  -0.822261 -0.184106 1.730185
v  -0.539389 -0.184106 1.730185
v  -0.539389 -0.382503 1.729456
v  -0.896349 0.070518 1.526067
v  -0.903416 0.121281 1.432336
v  -0.897121 0.070568 1.525975
v  -0.932247 0.032048 0.983532
v  -0.929104 0.001180 0.927341
v  -0.929104 0.001180 0.927341
v  -0.921943 -0.165733 0.830814
v  -0.932767 0.032043 0.983523
v  -0.929104 0.001180 0.927341
v  0.526086 0.009330 1.639050
v  0.526086 0.121281 1.432336
v  0.856807 0.009330 1.639050
v  0.825282 -0.184106 1.730185
v  0.902364 0.121281 1.432336
v  0.895858 0.070518 1.526067
v  0.927806 0.001180 0.927341
v  0.931609 0.032060 0.983553
v  0.526086 0.001180 0.927341
v  0.926988 0.083430 1.077063
v  0.526086 0.116784 1.137780
v  0.922784 0.116784 1.137780
v  0.919878 -0.165733 0.830814
v  0.526086 -0.165733 0.830814
v  0.526086 -0.421247 0.828127
v  -0.539389 -0.421247 0.828127
v  -0.539389 -0.421320 0.983837
v  -0.539389 -0.165733 0.830814
v  0.526086 -0.382539 1.729456
v  0.526086 -0.409567 1.526036
v  0.526086 -0.184106 1.730185
v  -0.915077 -0.421247 0.828127
v  -0.921515 -0.217592 0.830269
v  0.526086 -0.421320 0.983836
v  -0.539389 -0.409567 1.526037
v  -0.446111 -0.198010 -0.860784
v  -0.919904 0.035435 -1.020673
v  -0.919904 0.035435 -1.020673
v  -0.921981 0.102264 -1.157877
v  -0.921981 0.102264 -1.157877
v  -0.921400 0.103195 -1.282492
v  -0.446111 0.104211 -1.418332
v  -0.922960 0.103535 -1.327989
v  -0.918383 0.104211 -1.418332
v  -0.923533 0.103536 -1.328067
v  -0.899004 -0.088197 -1.675338
v  -0.899004 -0.088197 -1.675338
v  -0.888363 -0.178963 -1.713371
v  -0.446111 -0.393244 -1.332302
v  -0.446111 -0.324827 -1.665748
v  -0.886095 -0.319919 -1.714602
v  -0.884894 -0.278614 -1.714241
v  -0.446111 -0.319799 -1.714600
v  -0.446111 -0.324827 -1.665748
v  -0.822475 -0.382496 1.729456
v  0.916580 -0.421247 0.828127
v  -0.446111 -0.423559 -1.019498

vt  4294967296.000000 0.001586 0.000000
vt  4294967296.000000 0.001586 0.000000
vt  4294967296.000000 0.001586 0.000000
vt  4294967296.000000 0.001586 0.000000
vt  4294967296.000000 0.001586 0.000000
vt  4294967296.000000 0.001586 0.000000
vt  4294967296.000000 0.001586 0.000000
vt  4294967296.000000 0.001586 0.000000
vt  4294967296.000000 0.001586 0.000000
vt  4294967296.000000 0.001586 0.000000
vt  4294967296.000000 0.001586 0.000000
vt  4294967296.000000 0.001586 0.000000
vt  4294967296.000000 0.001586 0.000000
vt  4294967296.000000 0.001586 0.000000
vt  4294967296.000000 0.001586 0.000000
vt  4294967296.000000 0.001586 0.000000
vt  4294967296.000000 0.001586 0.000000
vt  4294967296.000000 0.001586 0.000000
vt  4294967296.000000 0.001586 0.000000
vt  4294967296.000000 0.001586 0.000000
vt  4294967296.000000 0.001586 0.000000
vt  4294967296.000000 0.001586 0.000000
vt  4294967296.000000 0.001586 0.000000
vt  4294967296.000000 0.001586 0.000000
vt  4294967296.000000 0.001586 0.000000
vt  4294967296.000000 0.001586 0.000000
vt  4294967296.000000 0.001586 0.000000
vt  4294967296.000000 0.001586 0.000000
vt  4294967296.000000 0.001586 0.000000
vt  4294967296.000000 0.001586 0.000000
vt  4294967296.000000 0.001586 0.000000
vt  4294967296.000000 0.001586 0.000000
vt  4294967296.000000 0.001586 0.000000
vt  4294967296.000000 0.001586 0.000000
vt  4294967296.000000 0.001586 0.000000
vt  4294967296.000000 0.001586 0.000000
vt  4294967296.000000 0.001586 0.000000
vt  4294967296.000000 0.001586 0.000000
vt  4294967296.000000 0.001586 0.000000
vt  4294967296.000000 0.001586 0.000000
vt  4294967296.000000 0.001586 0.000000
vt  4294967296.000000 0.001586 0.000000
vt  4294967296.000000 0.001586 0.000000
vt  4294967296.000000 0.001586 0.000000
vt  4294967296.000000 0.001586 0.000000
vt  4294967296.000000 0.001586 0.000000
vt  4294967296.000000 0.001586 0.000000
vt  4294967296.000000 0.001586 0.000000
vt  4294967296.000000 0.001586 0.000000
vt  4294967296.000000 0.001586 0.000000
vt  4294967296.000000 0.001586 0.000000
vt  4294967296.000000 0.001586 0.000000
vt  4294967296.000000 0.001586 0.000000
vt  4294967296.000000 0.001586 0.000000
vt  4294967296.000000 0.001586 0.000000
vt  4294967296.000000 0.001586 0.000000
vt  4294967296.000000 0.001586 0.000000
vt  4294967296.000000 0.001586 0.000000
vt  4294967296.000000 0.001586 0.000000
vt  4294967296.000000 0.001586 0.000000
vt  4294967296.000000 0.001586 0.000000
vt  4294967296.000000 0.001586 0.000000
vt  4294967296.000000 0.001586 0.000000
vt  4294967296.000000 0.001586 0.000000
vt  4294967296.000000 0.001586 0.000000
vt  4294967296.000000 0.001586 0.000000
vt  4294967296.000000 0.001586 0.000000
vt  4294967296.000000 0.001586 0.000000
vt  4294967296.000000 0.001586 0.000000
vt  4294967296.000000 0.001586 0.000000
vt  4294967296.000000 0.001586 0.000000
vt  4294967296.000000 0.001586 0.000000
vt  4294967296.000000 0.001586 0.000000
vt  4294967296.000000 0.001586 0.000000
vt  4294967296.000000 0.001586 0.000000
vt  4294967296.000000 0.001586 0.000000
vt  4294967296.000000 0.001586 0.000000
vt  4294967296.000000 0.001586 0.000000
vt  4294967296.000000 0.001586 0.000000
vt  4294967296.000000 0.001586 0.000000
vt  4294967296.000000 0.001586 0.000000
vt  4294967296.000000 0.001586 0.000000
vt  4294967296.000000 0.001586 0.000000
vt  4294967296.000000 0.001586 0.000000
vt  4294967296.000000 0.001586 0.000000
vt  4294967296.000000 0.001586 0.000000
vt  4294967296.000000 0.001586 0.000000
vt  4294967296.000000 0.001586 0.000000
vt  4294967296.000000 0.001586 0.000000
vt  4294967296.000000 0.001586 0.000000
vt  4294967296.000000 0.001586 0.000000
vt  4294967296.000000 0.001586 0.000000
vt  4294967296.000000 0.001586 0.000000
vt  4294967296.000000 0.001586 0.000000
vt  4294967296.000000 0.001586 0.000000
vt  4294967296.000000 0.001586 0.000000
vt  4294967296.000000 0.001586 0.000000
vt  4294967296.000000 0.001586 0.000000
vt  4294967296.000000 0.001586 0.000000
vt  4294967296.000000 0.001586 0.000000
vt  4294967296.000000 0.001586 0.000000
vt  4294967296.000000 0.001586 0.000000
vt  4294967296.000000 0.001586 0.000000
vt  4294967296.000000 0.001586 0.000000
vt  4294967296.000000 0.001586 0.000000
vt  4294967296.000000 0.001586 0.000000
vt  4294967296.000000 0.001586 0.000000
vt  4294967296.000000 0.001586 0.000000
vt  4294967296.000000 0.001586 0.000000
vt  4294967296.000000 0.001586 0.000000
vt  4294967296.000000 0.001586 0.000000
vt  4294967296.000000 0.001586 0.000000

vn  0.357180 -0.546283 -0.757626
vn  0.658326 -0.724291 -0.204962
vn  0.743269 -0.525562 -0.413928
vn  0.860323 -0.357266 0.363600
vn  0.400696 -0.235347 0.885468
vn  0.505015 -0.620393 0.600061
vn  0.473950 -0.748415 -0.463946
vn  0.633587 -0.162793 -0.756350
vn  0.600187 -0.566293 -0.564878
vn  0.849743 -0.113186 -0.514903
vn  0.473950 -0.748415 -0.463946
vn  0.721498 -0.626662 -0.294509
vn  0.842997 -0.524459 -0.119576
vn  0.721498 -0.626662 -0.294509
vn  0.842997 -0.524459 -0.119576
vn  0.576561 -0.817053 0.001218
vn  0.215641 -0.963508 0.158594
vn  0.727304 -0.686041 -0.019424
vn  0.588106 -0.804769 0.080486
vn  -0.000008 -0.999972 -0.007473
vn  0.762769 -0.295103 0.575411
vn  0.982293 -0.147044 0.116099
vn  0.762769 -0.295103 0.575411
vn  0.876748 -0.475448 -0.072545
vn  0.876748 -0.475448 -0.072545
vn  0.254790 -0.960292 0.113676
vn  0.661747 -0.595706 0.455220
vn  0.906478 -0.004054 -0.422233
vn  0.254790 -0.960292 0.113676
vn  0.661747 -0.595706 0.455220
vn  0.473950 -0.748415 -0.463946
vn  0.232466 -0.971422 -0.047941
vn  0.876748 -0.475448 -0.072545
vn  0.876748 -0.475448 -0.072545
vn  0.473950 -0.748415 -0.463946
vn  0.876748 -0.475448 -0.072545
vn  0.876748 -0.475448 -0.072545
vn  0.661747 -0.595706 0.455220
vn  -0.352469 -0.565169 -0.745888
vn  -0.792410 -0.563845 -0.232735
vn  -0.742030 -0.624861 -0.242774
vn  -0.346745 -0.923442 0.164386
vn  -0.000000 -0.942274 0.334844
vn  -0.557590 -0.624812 0.546537
vn  -0.357180 -0.546283 -0.757626
vn  -0.743117 -0.525593 -0.414160
vn  -0.662738 -0.720578 -0.203828
vn  -0.867278 -0.347791 0.356188
vn  -0.505015 -0.620393 0.600061
vn  -0.550774 -0.200056 0.810324
vn  -0.372953 -0.859312 -0.349984
vn  -0.598301 -0.570541 -0.562600
vn  -0.634208 -0.166535 -0.755014
vn  -0.529174 -0.218505 -0.819897
vn  -0.911374 -0.089140 -0.401810
vn  -0.206196 -0.944529 -0.255634
vn  -0.595279 -0.747462 -0.294862
vn  -0.000007 -0.971209 -0.238231
vn  -0.000027 -0.879327 -0.476219
vn  -0.000027 -0.876457 0.481481
vn  -0.754290 -0.530399 0.386942
vn  -0.754290 -0.530399 0.386942
vn  -0.497117 -0.238909 0.834145
vn  -0.904521 -0.373589 0.205603
vn  -0.754290 -0.530399 0.386942
vn  0.748847 -0.400248 -0.528232
vn  0.266702 -0.898357 -0.349034
vn  0.791845 -0.560754 -0.241942
vn  0.657428 -0.271326 -0.702973
vn  0.745507 -0.663929 -0.058453
vn  0.750782 -0.626937 -0.208029
vn  0.869407 -0.379272 0.316675
vn  0.850365 -0.469714 0.237166
vn  0.218491 -0.734495 0.642479
vn  0.575094 -0.704322 0.416170
vn  0.743811 -0.646130 0.171057
vn  0.736814 -0.641470 0.213590
vn  0.496865 -0.240768 0.833760
vn  0.912682 -0.107987 0.394146
vn  0.233861 -0.870704 0.432646
vn  -0.252831 -0.938873 0.233652
vn  -0.803575 -0.595170 0.006311
vn  -0.595669 -0.143858 0.790242
vn  0.335600 -0.923054 -0.187997
vn  0.803990 -0.592885 0.045699
vn  0.742110 -0.145169 -0.654369
vn  -0.327656 -0.322834 0.887930
vn  -0.972176 -0.022303 0.233189
vn  0.733781 -0.679347 0.007204
vn  -0.734278 -0.676838 0.052200
vn  -0.855499 -0.096898 -0.508657
vn  -0.721498 -0.626662 -0.294509
vn  -0.721498 -0.626662 -0.294509
vn  -0.842997 -0.524459 -0.119575
vn  -0.842997 -0.524459 -0.119575
vn  -0.576561 -0.817053 0.001218
vn  -0.215641 -0.963508 0.158594
vn  -0.727304 -0.686041 -0.019424
vn  -0.588106 -0.804769 0.080486
vn  0.000008 -0.999972 -0.007473
vn  -0.762769 -0.295103 0.575411
vn  -0.762769 -0.295103 0.575411
vn  -0.982328 -0.147045 0.115803
vn  -0.907666 -0.416051 -0.055177
vn  -0.586201 -0.799284 -0.132342
vn  -0.258593 -0.959468 0.112034
vn  -0.906214 0.001784 -0.422815
vn  -0.332663 -0.919083 0.211239
vn  -0.586201 -0.799284 -0.132342
vn  -0.671445 -0.647740 -0.359993
vn  0.612753 -0.580721 0.536000
vn  -0.475646 -0.878760 -0.039252

g Mesh_0033.rip
usemtl Mesh_0033.rip
f  1/1/1 2/2/2 3/3/3
f  4/4/4 5/5/5 6/6/6
f  7/7/7 8/8/8 9/9/9
f  10/10/10 8/8/8 11/11/11
f  8/8/8 10/10/10 1/1/1
f  2/2/2 12/12/12 3/3/3
f  2/2/2 13/13/13 14/14/14
f  15/15/15 2/2/2 16/16/16
f  17/17/17 18/18/18 16/16/16
f  17/17/17 19/19/19 18/18/18
f  19/19/19 17/17/17 6/6/6
f  20/20/20 18/18/18 19/19/19
f  5/5/5 21/21/21 6/6/6
f  5/5/5 22/22/22 23/23/23
f  24/24/24 4/4/4 2/2/2
f  5/5/5 25/25/25 26/26/26
f  27/27/27 28/28/28 22/22/22
f  5/5/5 29/29/29 30/30/30
f  1/1/1 3/3/3 8/8/8
f  17/17/17 16/16/16 2/2/2
f  4/4/4 6/6/6 17/17/17
f  31/31/31 32/32/32 33/33/33
f  2/2/2 1/1/1 10/10/10
f  4/4/4 17/17/17 2/2/2
f  34/34/34 5/5/5 4/4/4
f  10/10/10 35/35/35 36/36/36
f  2/2/2 10/10/10 37/37/37
f  22/22/22 5/5/5 38/38/38
f  39/39/39 40/40/40 41/41/41
f  42/42/42 43/43/43 44/44/44
f  45/45/45 46/46/46 47/47/47
f  48/48/48 49/49/49 50/50/50
f  51/51/51 52/52/52 53/53/53
f  54/54/54 39/39/39 55/55/55
f  54/54/54 55/55/55 56/56/56
f  41/41/41 40/40/40 57/57/57
f  41/41/41 57/57/57 58/58/58
f  58/58/58 42/42/42 41/41/41
f  59/59/59 58/58/58 57/57/57
f  44/44/44 43/43/43 60/60/60
f  44/44/44 60/60/60 61/61/61
f  62/62/62 63/63/63 44/44/44
f  64/64/64 65/65/65 60/60/60
f  66/66/66 67/67/67 68/68/68
f  68/68/68 69/69/69 66/66/66
f  70/70/70 71/71/71 67/67/67
f  67/67/67 71/71/71 68/68/68
f  72/72/72 73/73/73 74/74/74
f  73/73/73 75/75/75 74/74/74
f  76/76/76 75/75/75 77/77/77
f  77/77/77 70/70/70 76/76/76
f  78/78/78 74/74/74 79/79/79
f  78/78/78 79/79/79 80/80/80
f  81/81/81 82/82/82 83/83/83
f  82/82/82 41/41/41 44/44/44
f  84/84/84 85/85/85 86/86/86
f  85/85/85 76/76/76 66/66/66
f  87/87/87 63/63/63 88/88/88
f  79/79/79 89/89/89 80/80/80
f  86/86/86 69/69/69 84/84/84
f  55/55/55 90/90/90 56/56/56
f  91/91/91 51/51/51 53/53/53
f  53/53/53 45/45/45 91/91/91
f  47/47/47 46/46/46 92/92/92
f  47/47/47 93/93/93 94/94/94
f  95/95/95 96/96/96 47/47/47
f  97/97/97 96/96/96 98/98/98
f  97/97/97 98/98/98 99/99/99
f  99/99/99 49/49/49 97/97/97
f  100/100/100 99/99/99 98/98/98
f  50/50/50 49/49/49 101/101/101
f  50/50/50 102/102/102 103/103/103
f  104/104/104 47/47/47 48/48/48
f  50/50/50 105/105/105 104/104/104
f  106/106/106 103/103/103 107/107/107
f  50/50/50 106/106/106 108/108/108
f  50/50/50 108/108/108 109/109/109
f  39/39/39 54/54/54 40/40/40
f  56/56/56 110/110/110 54/54/54
f  42/42/42 58/58/58 43/43/43
f  83/83/83 44/44/44 63/63/63
f  86/86/86 66/66/66 69/69/69
f  76/76/76 74/74/74 75/75/75
f  67/67/67 76/76/76 70/70/70
f  74/74/74 78/78/78 72/72/72
f  80/80/80 111/111/111 78/78/78
f  55/55/55 82/82/82 90/90/90
f  41/41/41 55/55/55 39/39/39
f  44/44/44 41/41/41 42/42/42
f  82/82/82 44/44/44 83/83/83
f  41/41/41 82/82/82 55/55/55
f  79/79/79 85/85/85 89/89/89
f  76/76/76 79/79/79 74/74/74
f  66/66/66 76/76/76 67/67/67
f  85/85/85 66/66/66 86/86/86
f  76/76/76 85/85/85 79/79/79
f  83/83/83 87/87/87 81/81/81
f  87/87/87 83/83/83 63/63/63
f  45/45/45 53/53/53 46/46/46
f  97/97/97 47/47/47 96/96/96
f  48/48/48 97/97/97 49/49/49
f  51/51/51 104/104/104 112/112/112
f  47/47/47 91/91/91 45/45/45
f  48/48/48 47/47/47 97/97/97
f  104/104/104 48/48/48 50/50/50
f  91/91/91 104/104/104 51/51/51
f  47/47/47 104/104/104 91/91/91
f  103/103/103 106/106/106 50/50/50

g
