# 3ds Max Wavefront OBJ Exporter v0.97b - (c)2007 guruware
# File Created: 18.11.2018 15:41:56

mtllib wheel_cover_fix.mtl

#
# object Mesh_0028_rip
#

v  0.5642 0.0858 -1.8503
v  1.1088 0.0858 -1.8503
v  0.5642 0.0777 -1.2094
v  1.1087 -0.1363 -2.0026
v  1.1089 0.0777 -1.2094
v  1.1089 -0.1140 -1.0405
v  0.5642 -0.1571 -1.0025
v  0.5642 -0.6402 -1.0408
v  0.5642 -0.6402 -1.2371
v  0.5642 -0.1363 -2.0026
v  0.5642 -0.6402 -1.5878
v  0.5642 -0.2305 -2.0449
v  0.5927 -0.1260 2.3363
v  0.5927 0.0803 2.1637
v  1.1086 -0.1260 2.3363
v  0.5927 -0.1260 2.4161
v  0.5927 -0.6402 2.4133
v  -0.5640 0.0858 -1.8503
v  -0.5640 -0.6402 -1.5878
v  -0.5640 0.0777 -1.2094
v  -1.1006 -0.1140 -1.0405
v  -1.1006 0.0777 -1.2094
v  -1.1007 0.0858 -1.8503
v  -0.5640 -0.1363 -2.0026
v  -1.1008 -0.1363 -2.0026
v  -0.5640 -0.1571 -1.0025
v  -0.5640 -0.6402 -0.8858
v  -1.0997 -0.6402 -0.8858
v  -0.5640 -0.6402 -1.0408
v  -1.0273 -0.2305 -2.0449
v  0.5927 0.0700 1.5468
v  1.1086 0.0718 1.6497
v  1.0349 -0.1260 2.4161
v  -0.6119 -0.1260 2.3363
v  -1.1009 -0.1260 2.3363
v  -0.6119 0.0803 2.1637
v  -1.1009 0.0718 1.6497
v  -0.6119 0.0700 1.5468
v  -1.1009 0.0780 2.0215
v  -1.1009 0.0803 2.1637
v  -0.6119 -0.6402 2.4142
v  -0.6119 -0.1260 2.4161
v  -1.0273 -0.1260 2.4161
v  -0.6119 -0.6402 1.1696
v  -1.0996 -0.6402 1.1696
v  -1.1008 0.0700 1.5468
v  1.1089 -0.1571 -1.0025
v  0.5642 -0.6402 -0.8858
v  1.0349 -0.2305 -2.0449
v  1.1085 -0.2305 -2.0449
v  1.1086 0.0803 2.1637
v  1.1087 0.0700 1.5468
v  0.5927 -0.6402 1.1696
v  1.1072 -0.6402 1.1696
v  1.1072 -0.6402 -0.8858
v  -0.5640 -0.6402 -1.2371
v  -1.1006 -0.1571 -1.0025
v  -0.5640 -0.2305 -2.0449
v  -1.1010 -0.2305 -2.0449
v  1.1086 0.0780 2.0215
v  1.1086 -0.1260 2.4161
v  -1.1009 -0.1260 2.4161
# 62 vertices

vn 0.6147 -0.7001 0.3633
vn 0.0000 -0.8877 0.4605
vn 0.6262 -0.7085 -0.3255
vn -0.0000 -0.4897 0.8719
vn 0.0000 -0.9087 -0.4174
vn -0.0000 -0.6612 -0.7502
vn 0.6568 -0.3480 -0.6689
vn 1.0000 0.0000 -0.0000
vn 0.6876 -0.3555 0.6331
vn -0.0000 -0.4101 0.9120
vn 0.8159 -0.5238 -0.2448
vn 0.6218 -0.7123 -0.3257
vn 0.0000 -0.9060 -0.4234
vn -0.6147 -0.7001 0.3633
vn -1.0000 0.0000 -0.0000
vn -0.6262 -0.7085 -0.3255
vn 0.0000 -0.6612 -0.7502
vn 0.0000 -0.9999 -0.0128
vn 0.0000 -0.8876 0.4607
vn -0.6876 -0.3555 0.6331
vn 0.0000 -0.5652 0.8249
vn -0.6568 -0.3480 -0.6689
vn 0.0000 -0.2349 -0.9720
vn -1.0000 -0.0000 -0.0000
vn 0.0000 -0.4101 0.9120
vn 0.6086 -0.6766 0.4145
vn -0.0000 -0.9999 0.0167
vn 0.0000 -1.0000 -0.0000
vn -0.8159 -0.5238 -0.2448
vn -0.6218 -0.7123 -0.3257
vn 0.0000 -0.9999 0.0167
vn -0.6086 -0.6766 0.4145
vn 0.0000 -0.6415 -0.7671
vn -0.7063 -0.7079 -0.0000
vn -0.5675 -0.3862 0.7272
vn 0.0000 -0.4690 0.8832
vn 0.0000 -0.8529 0.5220
vn 0.0000 -0.4618 -0.8870
vn 0.0000 -0.9095 -0.4158
vn 0.0000 -0.8528 0.5222
vn 0.0000 -0.4617 -0.8871
vn -1.0000 -0.0000 0.0000
# 42 vertex normals

vt 4294967296.0000 -0.0000 0.0000
vt 4294967296.0000 -0.0936 0.0000
vt 4294967296.0000 -0.0636 0.0000
vt 4294967296.0000 -0.2200 0.0000
vt 4294967296.0000 -0.2533 0.0000
vt 4294967296.0000 -0.9191 0.0000
vt 4294967296.0000 -1.0000 0.0000
vt 4294967296.0000 -0.7837 0.0000
vt 4294967296.0000 -0.2608 0.0000
vt 4294967296.0000 -0.0552 0.0000
vt 4294967296.0000 -0.8851 0.0000
vt 4294967296.0000 -0.7635 0.0000
vt 4294967296.0000 -0.8571 0.0000
vt 4294967296.0000 -0.9349 0.0000
# 14 texture coords

g Mesh_0028_rip
usemtl _wheel_coverMesh_0028_rip
s 1
f 1/1/1 2/2/2 3/1/3 
f 1/1/1 4/3/4 2/2/2 
f 5/4/5 6/5/6 3/1/3 
f 7/1/7 8/1/8 9/1/8 
f 10/1/9 11/1/8 12/1/8 
f 10/1/9 12/1/10 4/3/4 
f 13/1/11 14/1/12 15/6/13 
f 13/1/11 16/7/8 17/1/8 
f 7/1/7 9/1/8 3/1/3 
f 18/1/14 19/1/15 20/1/16 
f 20/1/16 21/1/6 22/1/17 
f 18/1/14 22/1/18 23/1/19 
f 24/1/20 23/1/19 25/1/21 
f 26/1/22 27/1/23 28/1/23 
f 26/1/22 29/1/24 27/1/24 
f 24/1/20 25/1/25 30/1/25 
f 18/1/14 24/1/20 19/1/15 
f 14/1/12 31/1/26 32/8/27 
f 17/1/8 31/1/26 14/1/12 
f 17/1/8 14/1/12 13/1/11 
f 33/1/28 13/1/11 15/6/13 
f 34/7/29 35/1/13 36/1/30 
f 37/1/31 38/1/32 36/1/30 
f 36/1/30 39/1/27 37/1/31 
f 36/1/30 35/1/13 40/1/33 
f 36/1/30 40/1/31 39/1/27 
f 41/1/15 34/7/29 36/1/30 
f 42/1/34 43/1/28 34/7/29 
f 43/1/28 35/1/13 34/7/29 
f 44/1/35 41/1/15 38/1/32 
f 45/7/36 38/1/32 46/1/37 
f 2/2/2 5/4/5 3/1/3 
f 4/3/4 1/1/1 10/1/9 
f 7/1/7 6/5/6 47/9/38 
f 7/1/7 3/1/3 6/5/6 
f 48/1/8 8/1/8 7/1/7 
f 11/1/8 10/1/9 1/1/1 
f 4/3/4 49/1/25 50/10/25 
f 4/3/4 12/1/25 49/1/25 
f 14/1/12 51/11/39 15/6/13 
f 52/12/40 53/1/36 54/1/36 
f 31/1/26 53/1/36 52/12/40 
f 9/1/8 11/1/8 3/1/3 
f 1/1/1 3/1/3 11/1/8 
f 55/1/23 7/1/7 47/9/38 
f 7/1/7 55/1/23 48/1/23 
f 19/1/15 56/1/15 20/1/16 
f 26/1/22 20/1/16 56/1/15 
f 57/1/41 21/1/6 26/1/22 
f 21/1/6 20/1/16 26/1/22 
f 22/1/18 18/1/14 20/1/16 
f 23/1/19 24/1/20 18/1/14 
f 28/1/23 57/1/41 26/1/22 
f 26/1/22 56/1/42 29/1/42 
f 24/1/20 30/1/25 58/1/25 
f 59/1/25 30/1/25 25/1/25 
f 58/1/15 19/1/15 24/1/20 
f 52/12/40 32/8/27 31/1/26 
f 14/1/12 60/13/31 51/11/39 
f 14/1/12 32/8/27 60/13/31 
f 31/1/26 17/1/8 53/1/8 
f 61/14/28 33/1/28 15/6/13 
f 13/1/11 33/1/28 16/7/28 
f 38/1/32 37/1/31 46/1/37 
f 35/1/13 43/1/28 62/1/28 
f 36/1/30 38/1/32 41/1/15 
f 38/1/32 45/7/36 44/1/35 
f 34/7/29 41/1/15 42/1/34 
# 0 polygons - 68 triangles

